<?xml version="1.0" encoding="UTF-8" standalone="no"?>
<svg width="214px" height="63px" viewBox="0 0 214 63" version="1.1" xmlns="http://www.w3.org/2000/svg" xmlns:xlink="http://www.w3.org/1999/xlink">
    <!-- Generator: Sketch 43.1 (39012) - http://www.bohemiancoding.com/sketch -->
    <title>betty-logo</title>
    <desc>Created with Sketch.</desc>
    <defs>
        <polygon id="path-1" points="0 62.0397422 213.618641 62.0397422 213.618641 -0.0004921875 0 -0.0004921875"></polygon>
    </defs>
    <g id="Welcome" stroke="none" stroke-width="1" fill="none" fill-rule="evenodd">
        <g id="HOME" transform="translate(-80.000000, -45.000000)">
            <g id="betty-logo" transform="translate(80.000000, 45.000000)">
                <g id="Page-1">
                    <path d="M8.81798889,15.1132078 L8.81798889,18.1106297 L10.8775103,18.1106297 C11.418912,18.1106297 11.8588009,17.9806922 12.1971769,17.7198328 C12.5346385,17.4599578 12.704741,17.0799891 12.704741,16.5809109 C12.704741,16.2895359 12.6324932,16.0503328 12.4870829,15.8623172 C12.3425872,15.6752859 12.1633393,15.5246766 11.9502538,15.4095047 C11.7371684,15.2963016 11.510365,15.2175516 11.2689291,15.1752234 C11.0274932,15.1338797 10.7997752,15.1132078 10.5876043,15.1132078 L8.81798889,15.1132078 Z M8.81798889,7.62014531 L8.81798889,10.3360359 L10.6744846,10.3360359 C11.1573564,10.3360359 11.5542624,10.2169266 11.8633735,9.97772344 C12.1724846,9.73852031 12.3279547,9.36839531 12.3279547,8.86931719 C12.3279547,8.45292656 12.1633393,8.14087969 11.8341085,7.93219219 C11.5048778,7.72448906 11.0704761,7.62014531 10.5290744,7.62014531 L8.81798889,7.62014531 Z M15.8086556,12.4593328 C16.2915274,12.5843484 16.7652538,12.7871297 17.229835,13.0676766 C17.6944162,13.3492078 18.1096128,13.7035828 18.4772538,14.1298172 C18.8439803,14.5570359 19.1338863,15.0511922 19.3469718,15.6122859 C19.5600573,16.1753484 19.6661427,16.7994422 19.6661427,17.4865359 C19.6661427,18.6933797 19.4384248,19.7082703 18.9848179,20.5302234 C18.5302966,21.3521766 17.930365,22.0185984 17.1859376,22.5285047 C16.4415103,23.0384109 15.5909974,23.4026297 14.6334846,23.6211609 C13.6759718,23.8396922 12.6946812,23.9489578 11.6896128,23.9489578 L2.37786923,23.9489578 L2.37786923,1.84383281 L10.8189803,1.84383281 C11.650288,1.84383281 12.5346385,1.91175469 13.4729462,2.04661406 C14.4112538,2.18245781 15.2763991,2.45316094 16.0692966,2.85872344 C16.862194,3.26428594 17.519741,3.85786406 18.0419376,4.63847344 C18.5641342,5.41908281 18.8247752,6.44381719 18.8247752,7.71366094 C18.8247752,8.89983281 18.5495017,9.87928594 17.9989547,10.6480828 C17.4474932,11.4188484 16.7167838,11.9907703 15.8086556,12.3658172 L15.8086556,12.4593328 Z" id="Fill-1" fill="#4A4A4A"></path>
                    <polygon id="Fill-3" fill="#4A4A4A" points="36.9831325 1.84383281 51.1089615 1.84383281 51.1089615 8.02570781 43.4808675 8.02570781 43.4808675 9.93047344 50.6452949 9.93047344 50.6452949 15.7067859 43.4808675 15.7067859 43.4808675 17.7670828 51.6028077 17.7670828 51.6028077 23.9489578 36.9831325 23.9489578"></polygon>
                    <polygon id="Fill-5" fill="#4A4A4A" points="79.2166726 23.9490562 72.3128863 23.9490562 72.3128863 8.11932187 67.2665103 8.11932187 67.2665103 1.84393125 84.2639632 1.84393125 84.2639632 8.11932187 79.2166726 8.11932187"></polygon>
                    <polygon id="Fill-7" fill="#4A4A4A" points="111.123432 23.9490562 104.219646 23.9490562 104.219646 8.11932187 99.1732701 8.11932187 99.1732701 1.84393125 116.170723 1.84393125 116.170723 8.11932187 111.123432 8.11932187"></polygon>
                    <polygon id="Fill-9" fill="#4A4A4A" points="144.48146 23.9490562 137.577674 23.9490562 137.577674 14.894775 129.83252 1.84393125 138.157485 1.84393125 141.40681 8.33785312 144.50981 1.84393125 152.632665 1.84393125 144.48146 14.894775"></polygon>
                    <polygon id="Fill-11" fill="#4A4A4A" points="0 39.3102281 7.80276923 39.3102281 11.1965897 52.9851656 11.312735 52.9851656 14.5611453 39.3102281 22.3639145 39.3102281 14.9379316 61.4153531 7.28057265 61.4153531"></polygon>
                    <mask id="mask-2" fill="white">
                        <use xlink:href="#path-1"></use>
                    </mask>
                    <g id="Clip-14"></g>
                    <polygon id="Fill-13" fill="#4A4A4A" mask="url(#mask-2)" points="40.6380513 61.4156484 47.599453 61.4156484 47.599453 39.3105234 40.6380513 39.3105234"></polygon>
                    <polygon id="Fill-15" fill="#4A4A4A" mask="url(#mask-2)" points="79.0715368 61.4153531 72.1677504 61.4153531 72.1677504 45.5856188 67.1213744 45.5856188 67.1213744 39.3102281 84.1188274 39.3102281 84.1188274 45.5856188 79.0715368 45.5856188"></polygon>
                    <polygon id="Fill-16" fill="#4A4A4A" mask="url(#mask-2)" points="110.978754 61.4153531 104.074968 61.4153531 104.074968 45.5856188 99.0285915 45.5856188 99.0285915 39.3102281 116.026044 39.3102281 116.026044 45.5856188 110.978754 45.5856188"></polygon>
                    <path d="M138.186476,50.237775 C138.186476,50.9671969 138.287989,51.6326344 138.491015,52.2360563 C138.69404,52.8404625 138.973886,53.3602125 139.332382,53.797275 C139.689963,54.2343375 140.119792,54.5729625 140.622784,54.8121656 C141.125775,55.0513688 141.667177,55.1714625 142.246989,55.1714625 C142.827715,55.1714625 143.364544,55.0513688 143.857476,54.8121656 C144.350408,54.5729625 144.780237,54.2343375 145.147878,53.797275 C145.515519,53.3602125 145.800852,52.8404625 146.003878,52.2360563 C146.206903,51.6326344 146.308416,50.9671969 146.308416,50.237775 C146.308416,49.5309938 146.206903,48.8803219 146.003878,48.2867438 C145.800852,47.6931656 145.515519,47.1940875 145.147878,46.7875406 C144.780237,46.3819781 144.350408,46.0650094 143.857476,45.83565 C143.364544,45.6062906 142.827715,45.4921031 142.246989,45.4921031 C141.667177,45.4921031 141.125775,45.6062906 140.622784,45.83565 C140.119792,46.0650094 139.689963,46.3819781 139.332382,46.7875406 C138.973886,47.1940875 138.69404,47.6931656 138.491015,48.2867438 C138.287989,48.8803219 138.186476,49.5309938 138.186476,50.237775 M130.848288,50.237775 C130.848288,48.4688531 131.137279,46.8712125 131.718006,45.4448531 C132.297818,44.0204625 133.096203,42.8067281 134.110416,41.8085719 C135.126459,40.8084469 136.32998,40.0386656 137.721895,39.4972594 C139.114724,38.9568375 140.622784,38.6861344 142.246989,38.6861344 C143.871194,38.6861344 145.380168,38.9568375 146.772083,39.4972594 C148.164912,40.0386656 149.373006,40.8084469 150.398194,41.8085719 C151.423382,42.8067281 152.225425,44.0204625 152.805237,45.4448531 C153.385963,46.8712125 153.675869,48.4688531 153.675869,50.237775 C153.675869,52.0066969 153.385963,53.6210719 152.805237,55.0779469 C152.225425,56.5338375 151.423382,57.7780875 150.398194,58.8087281 C149.373006,59.8383844 148.164912,60.6347438 146.772083,61.1968219 C145.380168,61.7589 143.871194,62.0394469 142.246989,62.0394469 C140.622784,62.0394469 139.114724,61.7589 137.721895,61.1968219 C136.32998,60.6347438 135.126459,59.8383844 134.110416,58.8087281 C133.096203,57.7780875 132.297818,56.5338375 131.718006,55.0779469 C131.137279,53.6210719 130.848288,52.0066969 130.848288,50.237775" id="Fill-17" fill="#4A4A4A" mask="url(#mask-2)"></path>
                    <path d="M177.72197,48.64545 L179.07456,48.64545 C179.305021,48.64545 179.559261,48.6247781 179.837278,48.5834344 C180.116209,48.5420906 180.375021,48.4534969 180.614628,48.3176531 C180.854235,48.1827937 181.056346,47.9947781 181.219132,47.755575 C181.381919,47.5173562 181.464226,47.1994031 181.464226,46.8036844 C181.464226,46.40895 181.396551,46.0959187 181.262115,45.8665594 C181.128594,45.6381844 180.955748,45.4669031 180.744491,45.3517312 C180.533235,45.2375437 180.302774,45.1647 180.053107,45.1332 C179.804355,45.1017 179.573893,45.08595 179.362637,45.08595 L177.72197,45.08595 L177.72197,48.64545 Z M171.079739,39.3106219 L179.926902,39.3106219 C180.93197,39.3106219 181.932466,39.4189031 182.928389,39.6384187 C183.924312,39.85695 184.81415,40.2418406 185.596987,40.7930906 C186.380739,41.345325 187.013594,42.0836062 187.49738,43.0099031 C187.980252,43.9362 188.222603,45.0977625 188.222603,46.4916375 C188.222603,47.8451531 187.914406,49.0352625 187.296184,50.0659031 C186.678876,51.0965437 185.792697,51.8929031 184.635816,52.4549812 L189.846808,61.4157469 L181.916919,61.4157469 L177.982611,53.5161375 L177.779585,53.5161375 L177.779585,61.4157469 L171.079739,61.4157469 L171.079739,39.3106219 Z" id="Fill-18" fill="#4A4A4A" mask="url(#mask-2)"></path>
                    <polygon id="Fill-19" fill="#4A4A4A" mask="url(#mask-2)" points="206.293256 61.4156484 213.254658 61.4156484 213.254658 39.3105234 206.293256 39.3105234"></polygon>
                </g>
                <g id="Group" transform="translate(170.102564, 0.000000)" fill-opacity="0.939999998" fill="#FB5C5C">
                    <path d="M21.6593607,1.52036719 C24.3160701,5.63997656 26.971865,9.71036719 29.5837624,13.8289922 C30.0785231,14.6046797 31.2043094,13.8772266 30.7086342,13.1025234 C28.0976513,9.03114844 25.3961299,4.91252344 22.785147,0.842132813 C22.2894718,0.0664453125 21.1636855,0.793898438 21.6593607,1.52036719" id="Fill-20"></path>
                    <path d="M22.2215222,1.00130625 C22.214206,1.00130625 22.2068897,1.00130625 22.1995735,1.00229063 C22.1044624,1.01213438 22.0212402,1.07611875 21.9983769,1.13025938 C21.9938043,1.14010313 21.9837444,1.1647125 22.0285564,1.22869688 L22.0349581,1.239525 L24.338659,4.80493125 C26.2244197,7.71868125 28.1046932,10.6235719 29.9611889,13.5520875 C30.0901376,13.7538844 30.2629838,13.6406813 30.2968214,13.6150875 C30.3571803,13.5707906 30.3736419,13.4467594 30.3315735,13.3808063 C29.0274538,11.3470875 27.6995564,9.30057188 26.371659,7.25405625 C25.042847,5.20557188 23.7149496,3.15807188 22.4090009,1.12238438 C22.3559581,1.04068125 22.2965137,1.00130625 22.2215222,1.00130625 M30.1358641,14.6545875 C29.7993171,14.6545875 29.4527103,14.4941344 29.2067017,14.1082594 C27.350206,11.1807281 25.4726761,8.27879063 23.5887444,5.36700938 L21.2868726,1.80554063 C21.0609838,1.47085313 21.0170863,1.07710313 21.1643256,0.724696875 C21.327112,0.3378375 21.7011547,0.0622125 22.1181803,0.021853125 C22.5388641,-0.0165375 22.916565,0.179353125 23.161659,0.563259375 C24.4666932,2.59697813 25.7936761,4.64349375 27.1215735,6.69000938 C28.4503855,8.73849375 29.7791974,10.7859938 31.0851462,12.8226656 C31.2680521,13.1091188 31.3302402,13.4359313 31.2616504,13.7440406 C31.2003769,14.0157281 31.0421632,14.2578844 30.8144453,14.4262125 C30.620565,14.5699313 30.3800436,14.6545875 30.1358641,14.6545875" id="Fill-21"></path>
                    <path d="M21.6593607,0.793603125 C18.8234034,4.9132125 15.9417197,8.98360313 13.0609504,13.1022281 C12.5204632,13.8296813 13.6910615,14.5079156 14.1858222,13.8296813 C17.067506,9.71007188 19.9034632,5.63968125 22.829959,1.52007188 C23.3256342,0.793603125 22.1550359,0.067134375 21.6593607,0.793603125" id="Fill-22"></path>
                    <path d="M22.2095419,0.984965625 L22.1930803,0.984965625 C22.1226615,0.9898875 22.0723624,1.02040312 22.028465,1.08537187 L22.0266359,1.08734062 C20.042106,3.96959062 18.0347128,6.8292 16.0209179,9.69766875 L13.378841,13.4845594 C13.3843282,13.5062156 13.4501744,13.5810281 13.5672342,13.6085906 C13.6440547,13.6272937 13.7528838,13.6263094 13.8260462,13.5249187 L15.2865504,11.4370594 C17.6698154,8.02816875 20.0375333,4.64191875 22.4674393,1.22121562 C22.4957897,1.17790312 22.5213966,1.14148125 22.4198838,1.0607625 C22.3595248,1.0135125 22.2799607,0.984965625 22.2095419,0.984965625 M13.6403966,14.601825 C13.5800376,14.601825 13.5196786,14.5969031 13.4593197,14.5870594 C13.0340632,14.5201219 12.6682513,14.2287469 12.5283282,13.8438562 C12.4012085,13.4983406 12.4652256,13.1154187 12.7030034,12.7945125 L15.2911231,9.10409062 C17.3030889,6.238575 19.308653,3.38191875 21.2913538,0.5016375 C21.723012,-0.131315625 22.4774991,-0.113596875 22.9603709,0.26735625 C23.1762,0.43666875 23.3261829,0.671934375 23.3819692,0.9268875 C23.4478154,1.22810625 23.3828838,1.5411375 23.1990632,1.81184063 C20.7645846,5.23746562 18.3986957,8.62174687 16.0172598,12.0286687 L14.5512684,14.1253875 C14.3272085,14.4325125 13.9970632,14.601825 13.6403966,14.601825" id="Fill-23"></path>
                    <path d="M22.8753197,17.5606594 L22.8753197,1.18065937 C22.8753197,0.3094875 21.5693709,0.3094875 21.5693709,1.18065937 L21.5693709,17.5606594 C21.5693709,18.48105 22.8753197,18.48105 22.8753197,17.5606594" id="Fill-24"></path>
                    <path d="M22.2224368,1.01951719 C22.1328128,1.01951719 22.0267274,1.04707969 22.0267274,1.18095469 L22.0267274,17.5609547 C22.0267274,17.8237828 22.4181462,17.8237828 22.4181462,17.5609547 L22.4181462,1.18095469 C22.4181462,1.04707969 22.3120607,1.01951719 22.2224368,1.01951719 M22.2224368,18.7431891 C21.5895821,18.7431891 21.1121974,18.2352516 21.1121974,17.5609547 L21.1121974,1.18095469 C21.1121974,0.527329688 21.5895821,0.0351421875 22.2224368,0.0351421875 C22.8552915,0.0351421875 23.3326761,0.527329688 23.3326761,1.18095469 L23.3326761,17.5609547 C23.3326761,18.2352516 22.8552915,18.7431891 22.2224368,18.7431891" id="Fill-25"></path>
                    <path d="M42.0541094,6.41487656 C35.3460325,10.0974234 28.6379556,13.7809547 21.9298786,17.4635016 C21.1644171,17.8995797 21.8393402,19.1113453 22.6048017,18.6752672 C29.3128786,14.9917359 36.0209556,11.3091891 42.7290325,7.62664219 C43.4496821,7.23879844 42.774759,6.02703281 42.0541094,6.41487656" id="Fill-26"></path>
                    <path d="M42.2595128,6.85469531 L22.1371111,17.9023359 C22.0776667,17.9358047 22.0429145,18.0578672 22.0776667,18.1287422 C22.1032735,18.1818984 22.2029573,18.3482578 22.3913504,18.2399766 L42.5219829,7.18839844 C42.5658803,7.16378906 42.6134359,7.13917969 42.5521624,7.00727344 C42.5503333,7.00530469 42.432359,6.76117969 42.2595128,6.85469531 M22.2733761,19.2647109 C21.8344017,19.2647109 21.4567009,18.9703828 21.2692222,18.5894297 C21.1402735,18.3266016 21.1027778,18.0322734 21.1649658,17.7605859 C21.2353846,17.4514922 21.431094,17.1906328 21.7155128,17.0282109 L41.8498034,5.97466406 C42.4735128,5.63899219 43.1127692,6.01305469 43.3697521,6.56725781 C43.6422821,7.15394531 43.4593761,7.78394531 42.9335214,8.06646094 L22.8129487,19.1141016 C22.6291282,19.2184453 22.4462222,19.2647109 22.2733761,19.2647109" id="Fill-27"></path>
                    <path d="M41.8290436,6.70566094 C38.4525991,12.1817391 35.1209667,17.7060516 31.7445222,23.1329109 C31.248847,23.9085984 32.4194453,24.5878172 32.8703085,23.8603641 C36.246753,18.3842859 39.5783855,12.8599734 42.9539154,7.43212969 C43.4047786,6.65742656 42.2789923,5.92997344 41.8290436,6.70566094" id="Fill-28"></path>
                    <path d="M42.3591051,6.8662125 C42.3161222,6.8662125 42.2667376,6.88097812 42.2164385,6.96661875 L42.2100368,6.97744687 C40.8007462,9.26316562 39.3996863,11.5567594 37.999541,13.8474 C36.0451906,17.0476031 34.0917547,20.2438687 32.1246009,23.40765 C32.0679,23.4952594 32.0825325,23.5267594 32.0880197,23.5395562 C32.1154556,23.6005875 32.2096521,23.6694937 32.3148231,23.6773687 C32.4154214,23.6822906 32.4611479,23.6330719 32.4894983,23.5868062 C33.8997034,21.3010875 35.3016778,19.005525 36.7027376,16.7119312 C38.657088,13.5136969 40.6077803,10.3194 42.5740197,7.15857187 C42.6206607,7.07785312 42.598712,7.03257187 42.5868231,7.00894687 C42.5493274,6.93216562 42.4523872,6.86916562 42.3673359,6.8662125 L42.3591051,6.8662125 M32.3358573,24.6627281 C32.3075068,24.6627281 32.2800709,24.6617437 32.2517205,24.659775 C31.8255496,24.6272906 31.4387034,24.3565875 31.2649427,23.9677594 C31.1049,23.6124 31.1423957,23.2068375 31.3673701,22.8544312 C33.3308658,19.698525 35.2824726,16.5052125 37.2359085,13.3059937 C38.6351393,11.0153531 40.0361991,8.72274375 41.4445752,6.43800937 C41.6613188,6.0708375 42.0079256,5.87297812 42.3993444,5.88282187 C42.812712,5.89857187 43.2032162,6.15943125 43.394353,6.547275 C43.5736009,6.909525 43.5543957,7.32788437 43.3422248,7.6930875 C41.3686692,10.8647437 39.419806,14.0570719 37.4663701,17.2523531 C36.0653103,19.5469312 34.6615068,21.8444625 33.2513017,24.13215 C33.0400453,24.4727437 32.7099,24.6627281 32.3358573,24.6627281" id="Fill-29"></path>
                    <path d="M1.12981026,7.432425 C4.46144274,12.9085031 7.74826325,18.4328156 11.0798957,23.859675 C11.5298444,24.6353625 12.6556308,23.9088938 12.2047675,23.1332063 C8.91886154,17.6088938 5.58722906,12.1328156 2.25559658,6.70595625 C1.80564786,5.93026875 0.679861538,6.60850313 1.12981026,7.432425" id="Fill-30"></path>
                    <path d="M1.51866838,7.1733375 C2.90692479,9.45413437 4.28695043,11.744775 5.66514701,14.0314781 C7.5938906,17.2316812 9.5198906,20.4269625 11.4614376,23.588775 C11.5126513,23.6773687 11.5565487,23.6921344 11.5848991,23.6970562 C11.6342838,23.7049312 11.6955573,23.6881969 11.7495145,23.6527594 C11.8199333,23.6055094 11.8610872,23.47065 11.8171897,23.3948531 C8.92910427,18.5399156 5.76848889,13.3217437 1.87442051,6.97744687 C1.7701641,6.79829062 1.63298462,6.86325937 1.57994188,6.8977125 C1.43270256,6.99418125 1.48848889,7.11722812 1.51866838,7.1733375 M11.6159932,24.6853687 C11.2510957,24.6853687 10.9044889,24.4875094 10.6923179,24.1213219 C8.75534359,20.9673844 6.82842906,17.76915 4.89785641,14.5679625 C3.51783077,12.2783062 2.1368906,9.98569687 0.746805128,7.70194687 L0.735830769,7.68225937 C0.370018803,7.0119 0.644377778,6.35729062 1.10530085,6.05607187 C1.64761709,5.70268125 2.30882222,5.86904062 2.64262564,6.4449 C6.53395043,12.7832906 9.6973094,18.0054 12.5899675,22.8682125 C12.9201128,23.4361969 12.7655573,24.1301812 12.2342154,24.4875094 C12.0357624,24.6213844 11.8226769,24.6853687 11.6159932,24.6853687" id="Fill-31"></path>
                    <path d="M11.6201085,24.1994812 L32.2848265,24.1994812 C33.0951,24.1994812 33.0951,22.7937937 32.2848265,22.7937937 L11.6201085,22.7937937 C10.7641085,22.7937937 10.7641085,24.1994812 11.6201085,24.1994812" id="Fill-32"></path>
                    <path d="M11.6201085,23.2861781 C11.4975615,23.2861781 11.4353735,23.3570531 11.4353735,23.4968344 C11.4353735,23.6366156 11.4975615,23.7074906 11.6201085,23.7074906 L32.2848265,23.7074906 C32.4092026,23.7074906 32.4348094,23.5933031 32.4348094,23.4968344 C32.4348094,23.4003656 32.4092026,23.2861781 32.2848265,23.2861781 L11.6201085,23.2861781 Z M32.2848265,24.6918656 L11.6201085,24.6918656 C10.9936556,24.6918656 10.5208436,24.1780219 10.5208436,23.4968344 C10.5208436,22.8156469 10.9936556,22.3018031 11.6201085,22.3018031 L32.2848265,22.3018031 C32.8920744,22.3018031 33.3493393,22.8156469 33.3493393,23.4968344 C33.3493393,24.1780219 32.8920744,24.6918656 32.2848265,24.6918656 L32.2848265,24.6918656 Z" id="Fill-33"></path>
                    <path d="M1.35524188,7.67467969 C11.5751137,13.1507578 21.749259,18.6750703 31.9691308,24.1019297 C32.7345923,24.5389922 33.3647034,23.2789922 32.6449684,22.8911484 C22.4250966,17.4150703 12.2500368,11.8907578 2.03016496,6.41467969 C1.26470342,6.07507031 0.589780342,7.23860156 1.35524188,7.67467969" id="Fill-34"></path>
                    <path d="M1.5651265,7.23722344 C5.38694701,9.28472344 9.20145128,11.3391141 13.015041,13.3925203 C19.3975453,16.8299578 25.7754769,20.2644422 32.1716991,23.6615203 C32.2777846,23.7225516 32.3326564,23.6999109 32.3738103,23.6723484 C32.4497162,23.6191922 32.5082462,23.5050047 32.504588,23.4173953 C32.502759,23.3927859 32.5018444,23.3642391 32.4405709,23.3317547 C27.321947,20.5883016 22.215212,17.8340203 17.1075624,15.0787547 C12.0172889,12.3343172 6.92792991,9.58889531 1.82668205,6.85528594 C1.65932308,6.78342656 1.52945983,6.95962969 1.49653675,7.03542656 C1.44989573,7.14370781 1.4828188,7.18898906 1.5651265,7.23722344 M32.2896735,24.6862547 C32.1104256,24.6862547 31.9293487,24.6360516 31.755588,24.5376141 C25.3694256,21.1464422 18.989665,17.7109734 12.6053316,14.2725516 C8.79082735,12.2191453 4.97449402,10.1637703 1.15175897,8.11528594 L1.14169915,8.10937969 C0.612186325,7.80816094 0.417391453,7.19489531 0.668887179,6.61805156 C0.909408547,6.06680156 1.54866496,5.67108281 2.20438291,5.95950469 C7.33581026,8.70787969 12.4260838,11.4533016 17.5163573,14.1997078 C22.6240068,16.9539891 27.7307419,19.7082703 32.8484513,22.4507391 C33.1914,22.6348172 33.3980838,22.9685203 33.4172889,23.3671922 C33.4392376,23.8111453 33.2215795,24.2570672 32.8649128,24.5021766 C32.6865795,24.6242391 32.4899556,24.6862547 32.2896735,24.6862547" id="Fill-35"></path>
                </g>
            </g>
        </g>
    </g>
</svg>