<?xml version="1.0" encoding="UTF-8" standalone="no"?>
<svg width="35px" height="27px" viewBox="0 0 35 27" version="1.1" xmlns="http://www.w3.org/2000/svg" xmlns:xlink="http://www.w3.org/1999/xlink">
    <!-- Generator: Sketch 43.1 (39012) - http://www.bohemiancoding.com/sketch -->
    <title>photo-icon</title>
    <desc>Created with Sketch.</desc>
    <defs></defs>
    <g id="Welcome" stroke="none" stroke-width="1" fill="none" fill-rule="evenodd">
        <g id="HOME" transform="translate(-118.000000, -318.000000)">
            <g id="photo-icon" transform="translate(119.174528, 319.437472)">
                <path d="M26.8575832,4.16819575 C25.9876601,2.43907974 25.2025409,0.0900919479 23.4380743,0.0900919479 L16.5990566,0.0900919479 C15.2298853,0.0900919479 14.584282,1.39916327 12.495646,4.16819575 L3.60492295,4.16819575 C1.55321763,4.16819575 0.86931586,5.09120658 0.86931586,6.51038671 L0.86931586,20.6315008 C0.86931586,22.0493216 1.55321763,23.1993469 3.68151994,23.1993469 L29.5165933,23.1993469 C31.6448956,23.1993469 32.3287973,22.0493216 32.3287973,20.6315008 L32.3287973,6.51038671 C32.3287973,5.09120658 31.6448956,4.16819575 29.5165933,4.16819575 L26.8575832,4.16819575 Z" id="Stroke-1" stroke="#4A4A4A" stroke-width="3" stroke-linejoin="round"></path>
                <path d="M25.9759312,13.0040873 C25.9759312,16.2733488 23.3081145,18.9247124 20.0185655,18.9247124 C16.7279333,18.9247124 14.0611998,16.2733488 14.0611998,13.0040873 C14.0611998,9.73374936 16.7279333,7.0834623 20.0185655,7.0834623 C23.3081145,7.0834623 25.9759312,9.73374936 25.9759312,13.0040873 Z" id="Stroke-3" stroke="#4A4A4A" stroke-width="3" stroke-linejoin="round"></path>
                <path d="M7.70833357,8.92598353 C7.70833357,10.0515402 6.78916959,10.9650354 5.65662826,10.9650354 C4.52271912,10.9650354 3.60492295,10.0515402 3.60492295,8.92598353 C3.60492295,7.79906751 4.52271912,6.88693163 5.65662826,6.88693163 C6.78916959,6.88693163 7.70833357,7.79906751 7.70833357,8.92598353 Z" id="Stroke-7" fill="#4A4A4A"></path>
            </g>
        </g>
    </g>
</svg>